{"title":"13 Hours The Secret Soldiers of Benghazi 2016 HQ 1080p Bluray Hi","uid":15303141,"size":11434303766,"categoryP":"video","categoryS":"hd___movies","magnet":"?xt=urn:btih:4e249843b99629582409fd8cfe26da1a57fcb119&amp;dn=13+Hours+The+Secret+Soldiers+of+Benghazi+2016+HQ+1080p+Bluray+Hi&amp;tr=udp%3A%2F%2Ftracker.leechers-paradise.org%3A6969&amp;tr=udp%3A%2F%2Fzer0day.ch%3A1337&amp;tr=udp%3A%2F%2Fopen.demonii.com%3A1337&amp;tr=udp%3A%2F%2Ftracker.coppersurfer.tk%3A6969&amp;tr=udp%3A%2F%2Fexodus.desync.com%3A6969","seeders":2,"leechers":10,"uploader":"SaM","files":3,"time":1468508108,"description":"- HollywooD MoviE -\r\n**- 13 Hours - The Secret Soldiers of Benghazi -**\r\n- (2016) -\r\n** HQ 1080p Blu-Ray / x264 **\r\nHindi Dubbed AC3 5.1 Audio\r\n\r\nEnglish subtitle(s)\r\n\r\n ~* SCREENSHOTS *~\r\n \nhttp://extraimago.com/image/a0Xl \nhttp://extraimago.com/image/a0XI \nhttp://extraimago.com/image/a0Xd \nhttp://extraimago.com/image/a0Xh \nhttp://extraimago.com/image/a0Xb \nhttp://extraimago.com/image/a0X3 \nhttp://extraimago.com/image/a0X9 \nhttp://extraimago.com/image/a0XM \nhttp://extraimago.com/image/a0XU \nhttp://extraimago.com/image/a0Xz \nhttp://extraimago.com/image/a0X0\r\n\r\n[ Specs ]\r\nGeneral\r\nSource = BD50 @ DDR\r\nFormat : Matroska\r\nFile size : 10.6 GiB\r\nDuration : 2h 24mn\r\nOverall bit rate : 10.5 Mbps\r\nEncoded date : UTC 2016-07-13 18:02:37\r\n\r\nVideo\r\nFormat : AVC\r\nFormat profile :   \r\nBit rate : 10 000 Kbps\r\nWidth : 1 920 pixels\r\nHeight : 800 pixels\r\nDisplay aspect ratio : 2.40:1\r\nFrame rate mode : Constant\r\nFrame rate : 23.976 (24000/1001) fps\r\nColor space : YUV\r\nChroma subsampling : 4:2:0\r\nBit depth : 8 bits\r\nScan type : Progressive\r\nBits/(Pixel*Frame) : 0.272\r\nStream size : 10.1 GiB (96%)\r\nTransfer characteristics : BT.709\r\n\r\nAudio #1\r\nFormat : AC-3\r\nFormat/Info : Audio Coding 3\r\nMode extension : CM (complete main)\r\nFormat settings, Endianness : Big\r\nCodec ID : A_AC3\r\nDuration : 2h 24mn\r\nBit rate mode : Constant\r\nBit rate : 640 Kbps\r\nChannel(s) : 6 channels\r\nChannel positions : Front: L C R, Side: L R, LFE\r\nSampling rate : 48.0 KHz\r\nFrame rate : 31.250 fps (1536 spf)\r\nCompression mode : Lossy\r\nStream size : 462 MiB (4%))\r\nLanguage : Hindi\r\nDefault : Yes\r\nForced : No\r\n\r\nChapters: YES\r\n\r\n\r\nA DDR Exclusive Encode...!","torrent":{"xt":"urn:btih:4e249843b99629582409fd8cfe26da1a57fcb119","amp;dn":"13+Hours+The+Secret+Soldiers+of+Benghazi+2016+HQ+1080p+Bluray+Hi","amp;tr":["udp%3A%2F%2Ftracker.leechers-paradise.org%3A6969","udp%3A%2F%2Fzer0day.ch%3A1337","udp%3A%2F%2Fopen.demonii.com%3A1337","udp%3A%2F%2Ftracker.coppersurfer.tk%3A6969","udp%3A%2F%2Fexodus.desync.com%3A6969"],"infoHash":"4e249843b99629582409fd8cfe26da1a57fcb119","infoHashBuffer":{"type":"Buffer","data":[78,36,152,67,185,150,41,88,36,9,253,140,254,38,218,26,87,252,177,25]},"announce":[],"urlList":[]}}